# xmcd
#
# Track frame offsets: 
#        150
#        13730
#        34740
#        56979
#        80686
#        96153
#        117211
#        138310
#        162237
#        188641
#        213487
#        229492
#        250774
#
# Disc length: 3621 seconds
#
# Revision: 2
# Processed by: cddbd v1.5.2PL0 Copyright (c) Steve Scherf et al.
# Submitted via: ExactAudioCopy v0.95b4
#
DISCID=b40e230d
DTITLE=Stefan Banica jr. - Duete
DYEAR=2005
DGENRE=Rock
TTITLE0=Cum am ajuns sa te iubesc (cu Stefan Banica Sr.)
TTITLE1=Prosopul (cu Andra)
TTITLE2=Fii gagica mea (cu A.G. Weinberg)
TTITLE3=Iubeste sincer (cu Angela Similea)
TTITLE4=Bubulina gospodina (cu Gabriel Cotabita)
TTITLE5=Noi cei de acum (cu Loredana)
TTITLE6=Am s - o astept mereu (cu Nicu Alifantis)
TTITLE7=Inca o zi (cu Nicola)
TTITLE8=Mi - e dor de ochii tai (cu Bodo (Proconsul))
TTITLE9=Te iubesc femeie (barbate) ! (cu Andreea Marin)
TTITLE10=Fata din visul meu (cu Alexandru Arsinel)
TTITLE11=Toata lumea danseaza (cu DJ Phantom)
TTITLE12=Viata e frumoasa (bonus track)
EXTD=
EXTT0=
EXTT1=
EXTT2=
EXTT3=
EXTT4=
EXTT5=
EXTT6=
EXTT7=
EXTT8=
EXTT9=
EXTT10=
EXTT11=
EXTT12=
PLAYORDER=
